<svg version="1.1" viewBox="0.0 0.0 679.4698162729659 414.18897637795277" fill="none" stroke="none" stroke-linecap="square" stroke-miterlimit="10" xmlns:xlink="http://www.w3.org/1999/xlink" xmlns="http://www.w3.org/2000/svg"><clipPath id="p.0"><path d="m0 0l679.4698 0l0 414.18896l-679.4698 0l0 -414.18896z" clip-rule="nonzero"/></clipPath><g clip-path="url(#p.0)"><path fill="#000000" fill-opacity="0.0" d="m0 0l679.4698 0l0 414.18896l-679.4698 0z" fill-rule="evenodd"/><path fill="#000000" fill-opacity="0.0" d="m-3.887139 216.41339l0 -71.779526l45.82677 0l0 71.779526z" fill-rule="evenodd"/><path fill="#000000" d="m23.03286 205.67902l-13.359376 0l0 -1.765625l13.359376 0l0 1.765625zm0 -4.683304l-9.671876 0l0 -1.46875l1.375 0q-1.59375 -1.0625 -1.59375 -3.078125q0 -0.875 0.3125 -1.609375q0.3125 -0.734375 0.828125 -1.09375q0.5 -0.375 1.203125 -0.515625q0.453125 -0.09375 1.593751 -0.09375l5.953125 0l0 1.640625l-5.890625 0q-1.0 0 -1.484376 0.203125q-0.5 0.1875 -0.796875 0.671875q-0.296875 0.484375 -0.296875 1.140625q0 1.046875 0.671875 1.8125q0.65625 0.75 2.515626 0.75l5.28125 0l0 1.640625zm3.703125 -10.375717l-13.375001 0l0 -1.484375l1.25 0q-0.734375 -0.53125 -1.09375 -1.1875q-0.375 -0.671875 -0.375 -1.625q0 -1.234375 0.640625 -2.171875q0.625 -0.953125 1.796875 -1.4375q1.156251 -0.484375 2.546876 -0.484375q1.484375 0 2.671875 0.53125q1.1875 0.53125 1.828125 1.546875q0.625 1.015625 0.625 2.140625q0 0.8125 -0.34375 1.46875q-0.34375 0.65625 -0.875 1.0625l4.703125 0l0 1.640625zm-8.484375 -1.484375q1.859375 0 2.765625 -0.75q0.890625 -0.765625 0.890625 -1.828125q0 -1.09375 -0.921875 -1.875q-0.9375 -0.78125 -2.875 -0.78125q-1.84375 0 -2.765626 0.765625q-0.921875 0.75 -0.921875 1.8125q0 1.046875 0.984375 1.859375q0.96875095 0.796875 2.843751 0.796875zm4.78125 -15.219467l-1.421875 0q1.640625 1.125 1.640625 3.0625q0 0.859375 -0.328125 1.609375q-0.328125 0.734375 -0.828125 1.09375q-0.5 0.359375 -1.21875 0.5q-0.46875 0.109375 -1.53125 0.109375l-5.984376 0l0 -1.640625l5.359376 0q1.28125 0 1.734375 -0.109375q0.640625 -0.15625 1.015625 -0.65625q0.375 -0.5 0.375 -1.234375q0 -0.734375 -0.375 -1.375q-0.390625 -0.65625 -1.03125 -0.921875q-0.65625 -0.265625 -1.890625 -0.265625l-5.187501 0l0 -1.640625l9.671876 0l0 1.46875zm-1.46875 -7.625717l1.453125 -0.234375q0.140625 0.6875 0.140625 1.234375q0 0.890625 -0.28125 1.390625q-0.28125 0.484375 -0.734375 0.6875q-0.46875 0.203125 -1.9375 0.203125l-5.578126 0l0 1.203125l-1.265625 0l0 -1.203125l-2.390625 0l-0.984375 -1.625l3.375 0l0 -1.65625l1.265625 0l0 1.65625l5.671876 0q0.6875 0 0.890625 -0.078125q0.203125 -0.09375 0.328125 -0.28125q0.109375 -0.203125 0.109375 -0.578125q0 -0.265625 -0.0625 -0.71875zm-1.421875 -0.94892883l-0.25 -1.625q0.96875 -0.125 1.5 -0.75q0.515625 -0.625 0.515625 -1.75q0 -1.125 -0.453125 -1.671875q-0.46875 -0.546875 -1.09375 -0.546875q-0.546875 0 -0.875 0.484375q-0.21875 0.328125 -0.546875 1.671875q-0.46875 1.8125 -0.796875 2.515625q-0.328125 0.6875 -0.90625 1.046875q-0.59375 0.359375 -1.312501 0.359375q-0.640625 0 -1.1875 -0.296875q-0.5625 -0.296875 -0.921875 -0.8125q-0.28125 -0.375 -0.46875 -1.03125q-0.203125 -0.671875 -0.203125 -1.421875q0 -1.140625 0.328125 -2.0q0.328125 -0.859375 0.890625 -1.265625q0.5625 -0.421875 1.5 -0.578125l0.21875095 1.609375q-0.75000095 0.109375 -1.171876 0.640625q-0.421875 0.515625 -0.421875 1.46875q0 1.140625 0.375 1.625q0.375 0.46875 0.875 0.46875q0.31250095 0 0.57812595 -0.1875q0.265625 -0.203125 0.4375 -0.640625q0.09375 -0.234375 0.421875 -1.4375q0.453125 -1.75 0.75 -2.4375q0.296875 -0.6875 0.859375 -1.078125q0.5625 -0.390625 1.40625 -0.390625q0.828125 0 1.546875 0.484375q0.71875 0.46875 1.125 1.375q0.390625 0.90625 0.390625 2.046875q0 1.875 -0.78125 2.875q-0.78125 0.984375 -2.328125 1.25z" fill-rule="nonzero"/><path fill="#cfe2f3" d="m82.81365 54.464565l0 0c0 -19.82137 16.06839 -35.889763 35.889763 -35.889763l0 0c9.518555 0 18.647263 3.7812328 25.3779 10.511869c6.7306366 6.7306347 10.511856 15.859339 10.511856 25.377893l0 0c0 19.82137 -16.06839 35.889767 -35.889755 35.889767l0 0c-19.821373 0 -35.889763 -16.068398 -35.889763 -35.889767z" fill-rule="evenodd"/><path stroke="#000000" stroke-width="2.0" stroke-linejoin="round" stroke-linecap="butt" d="m82.81365 54.464565l0 0c0 -19.82137 16.06839 -35.889763 35.889763 -35.889763l0 0c9.518555 0 18.647263 3.7812328 25.3779 10.511869c6.7306366 6.7306347 10.511856 15.859339 10.511856 25.377893l0 0c0 19.82137 -16.06839 35.889767 -35.889755 35.889767l0 0c-19.821373 0 -35.889763 -16.068398 -35.889763 -35.889767z" fill-rule="evenodd"/><path fill="#000000" d="m110.72146 61.384563l3.53125 -5.03125l-3.265625 -4.640625l2.046875 0l1.484375 2.265625q0.421875 0.640625 0.671875 1.078125q0.40625 -0.59375 0.734375 -1.0625l1.640625 -2.28125l1.953125 0l-3.34375 4.546875l3.59375 5.125l-2.015625 0l-1.984375 -3.0l-0.515625 -0.8125l-2.546875 3.8125l-1.984375 0z" fill-rule="nonzero"/><path fill="#000000" d="m124.54958 68.38457l-1.09375 0l0 -6.968754q-0.40625 0.375 -1.046875 0.75q-0.640625 0.375 -1.140625 0.578125l0 -1.0625q0.90625 -0.4375 1.59375 -1.046875q0.6875 -0.609375 0.96875 -1.1875l0.71875 0l0 8.937504z" fill-rule="nonzero"/><path fill="#cfe2f3" d="m82.81365 150.0315l0 0c0 -19.821365 16.06839 -35.889763 35.889763 -35.889763l0 0c9.518555 0 18.647263 3.7812347 25.3779 10.511871c6.7306366 6.730629 10.511856 15.859337 10.511856 25.377892l0 0c0 19.821365 -16.06839 35.88977 -35.889755 35.88977l0 0c-19.821373 0 -35.889763 -16.068405 -35.889763 -35.88977z" fill-rule="evenodd"/><path stroke="#000000" stroke-width="2.0" stroke-linejoin="round" stroke-linecap="butt" d="m82.81365 150.0315l0 0c0 -19.821365 16.06839 -35.889763 35.889763 -35.889763l0 0c9.518555 0 18.647263 3.7812347 25.3779 10.511871c6.7306366 6.730629 10.511856 15.859337 10.511856 25.377892l0 0c0 19.821365 -16.06839 35.88977 -35.889755 35.88977l0 0c-19.821373 0 -35.889763 -16.068405 -35.889763 -35.88977z" fill-rule="evenodd"/><path fill="#000000" d="m110.72146 156.95149l3.53125 -5.03125l-3.265625 -4.640625l2.046875 0l1.484375 2.265625q0.421875 0.640625 0.671875 1.078125q0.40625 -0.59375 0.734375 -1.0625l1.640625 -2.28125l1.953125 0l-3.34375 4.546875l3.59375 5.125l-2.015625 0l-1.984375 -3.0l-0.515625 -0.8125l-2.546875 3.8125l-1.984375 0z" fill-rule="nonzero"/><path fill="#000000" d="m126.17458 162.90462l0 1.046875l-5.890625 0q-0.015625 -0.390625 0.125 -0.765625q0.234375 -0.59375 0.71875 -1.171875q0.5 -0.59375 1.4375 -1.359375q1.453125 -1.1875 1.953125 -1.875q0.515625 -0.703125 0.515625 -1.3125q0 -0.65625 -0.46875 -1.09375q-0.453125 -0.453125 -1.203125 -0.453125q-0.796875 0 -1.265625 0.46875q-0.46875 0.46875 -0.484375 1.3125l-1.125 -0.109375q0.125 -1.265625 0.875 -1.921875q0.75 -0.65625 2.015625 -0.65625q1.28125 0 2.03125 0.71875q0.75 0.703125 0.75 1.75q0 0.53125 -0.21875 1.046875q-0.21875 0.515625 -0.734375 1.09375q-0.5 0.5625 -1.671875 1.5625q-0.984375 0.828125 -1.265625 1.125q-0.28125 0.296875 -0.46875 0.59375l4.375 0z" fill-rule="nonzero"/><path fill="#cfe2f3" d="m82.81365 306.58267l0 0c0 -19.82135 16.06839 -35.88977 35.889763 -35.88977l0 0c9.518555 0 18.647263 3.78125 25.3779 10.511871c6.7306366 6.730652 10.511856 15.8593445 10.511856 25.3779l0 0c0 19.82138 -16.06839 35.88977 -35.889755 35.88977l0 0c-19.821373 0 -35.889763 -16.06839 -35.889763 -35.88977z" fill-rule="evenodd"/><path stroke="#000000" stroke-width="2.0" stroke-linejoin="round" stroke-linecap="butt" d="m82.81365 306.58267l0 0c0 -19.82135 16.06839 -35.88977 35.889763 -35.88977l0 0c9.518555 0 18.647263 3.78125 25.3779 10.511871c6.7306366 6.730652 10.511856 15.8593445 10.511856 25.3779l0 0c0 19.82138 -16.06839 35.88977 -35.889755 35.88977l0 0c-19.821373 0 -35.889763 -16.06839 -35.889763 -35.88977z" fill-rule="evenodd"/><path fill="#000000" d="m110.72146 313.5027l3.53125 -5.03125l-3.265625 -4.640625l2.046875 0l1.484375 2.265625q0.421875 0.640625 0.671875 1.078125q0.40625 -0.59375 0.734375 -1.0625l1.640625 -2.28125l1.953125 0l-3.34375 4.546875l3.59375 5.125l-2.015625 0l-1.984375 -3.0l-0.515625 -0.8125l-2.546875 3.8125l-1.984375 0z" fill-rule="nonzero"/><path fill="#000000" d="m120.72146 320.5027l0 -6.453125l0.984375 0l0 0.921875q0.71875 -1.0625 2.0625 -1.0625q0.578125 0 1.0625 0.21875q0.5 0.203125 0.734375 0.546875q0.25 0.328125 0.34375 0.796875q0.0625 0.3125 0.0625 1.0625l0 3.96875l-1.09375 0l0 -3.921875q0 -0.671875 -0.125 -1.0q-0.125 -0.328125 -0.453125 -0.515625q-0.328125 -0.203125 -0.765625 -0.203125q-0.703125 0 -1.21875 0.4375q-0.5 0.4375 -0.5 1.6875l0 3.515625l-1.09375 0z" fill-rule="nonzero"/><path fill="#000000" fill-opacity="0.0" d="m85.41207 209.70866l66.58268 0l0 37.196854l-66.58268 0z" fill-rule="evenodd"/><path fill="#000000" d="m112.61596 236.62866l0 -1.875l1.875 0l0 1.875l-1.875 0zm5.183296 0l0 -1.875l1.875 0l0 1.875l-1.875 0zm5.183304 0l0 -1.875l1.875 0l0 1.875l-1.875 0z" fill-rule="nonzero"/><path fill="#000000" fill-opacity="0.0" d="m64.64567 309.81497c-8.358196 0 -15.133858 -12.778076 -15.133858 -28.54065l0 -72.21005c0 -15.762573 -6.7756577 -28.54065 -15.133858 -28.54065l0 0c8.3582 0 15.133858 -12.778076 15.133858 -28.540634l0 -72.21006l0 0c0 -15.762566 6.7756615 -28.540642 15.133858 -28.540642z" fill-rule="evenodd"/><path fill="#000000" fill-opacity="0.0" d="m64.64567 309.81497c-8.358196 0 -15.133858 -12.778076 -15.133858 -28.54065l0 -72.21005c0 -15.762573 -6.7756577 -28.54065 -15.133858 -28.54065l0 0c8.3582 0 15.133858 -12.778076 15.133858 -28.540634l0 -72.21006l0 0c0 -15.762566 6.7756615 -28.540642 15.133858 -28.540642" fill-rule="evenodd"/><path stroke="#000000" stroke-width="1.0" stroke-linejoin="round" stroke-linecap="butt" d="m64.64567 309.81497c-8.358196 0 -15.133858 -12.778076 -15.133858 -28.54065l0 -72.21005c0 -15.762573 -6.7756577 -28.54065 -15.133858 -28.54065l0 0c8.3582 0 15.133858 -12.778076 15.133858 -28.540634l0 -72.21006l0 0c0 -15.762566 6.7756615 -28.540642 15.133858 -28.540642" fill-rule="evenodd"/><path fill="#fce5cd" d="m265.9475 147.08563l0 0c0 -9.233917 7.485565 -16.719498 16.719482 -16.719498l66.87598 0l0 0c4.4342957 0 8.686951 1.7615204 11.822479 4.8970337c3.135498 3.1355133 4.8970337 7.3881836 4.8970337 11.822464l0 66.87598c0 9.233917 -7.4855957 16.719498 -16.719513 16.719498l-66.87598 0c-9.233917 0 -16.719482 -7.4855804 -16.719482 -16.719498z" fill-rule="evenodd"/><path stroke="#000000" stroke-width="1.0" stroke-linejoin="round" stroke-linecap="butt" d="m265.9475 147.08563l0 0c0 -9.233917 7.485565 -16.719498 16.719482 -16.719498l66.87598 0l0 0c4.4342957 0 8.686951 1.7615204 11.822479 4.8970337c3.135498 3.1355133 4.8970337 7.3881836 4.8970337 11.822464l0 66.87598c0 9.233917 -7.4855957 16.719498 -16.719513 16.719498l-66.87598 0c-9.233917 0 -16.719482 -7.4855804 -16.719482 -16.719498z" fill-rule="evenodd"/><path fill="#000000" d="m332.10498 157.65112l0 5.40625l-24.59375 0l15.625 16.625l-15.625 18.375l25.875 0l0 5.40625l-32.4375 0l0 -6.3125l14.96875 -17.46875l-14.96875 -15.9375l0 -6.09375l31.15625 0z" fill-rule="nonzero"/><path fill="#000000" fill-opacity="0.0" d="m154.59317 54.464565l111.37009 126.04724" fill-rule="evenodd"/><path stroke="#000000" stroke-width="2.0" stroke-linejoin="round" stroke-linecap="butt" d="m154.59317 54.464565l111.37009 126.04724" fill-rule="evenodd"/><path fill="#000000" fill-opacity="0.0" d="m154.59317 150.0315l111.37009 30.48819" fill-rule="evenodd"/><path stroke="#000000" stroke-width="2.0" stroke-linejoin="round" stroke-linecap="butt" d="m154.59317 150.0315l111.37009 30.48819" fill-rule="evenodd"/><path fill="#000000" fill-opacity="0.0" d="m154.59317 306.58267l111.37009 -126.04724" fill-rule="evenodd"/><path stroke="#000000" stroke-width="2.0" stroke-linejoin="round" stroke-linecap="butt" d="m154.59317 306.58267l111.37009 -126.04724" fill-rule="evenodd"/><path fill="#000000" fill-opacity="0.0" d="m156.75853 35.459316l63.149612 0l0 39.77953l-63.149612 0z" fill-rule="evenodd"/><path fill="#000000" d="m181.15396 62.379314l-2.96875 -9.671875l1.703125 0l1.53125 5.578125l0.578125 2.078125q0.046875 -0.15625 0.5 -2.0l1.546875 -5.65625l1.6875 0l1.4375 5.609375l0.484375 1.84375l0.5625 -1.859375l1.65625 -5.59375l1.59375 0l-3.03125 9.671875l-1.703125 0l-1.53125 -5.796875l-0.375 -1.640625l-1.953125 7.4375l-1.71875 0z" fill-rule="nonzero"/><path fill="#000000" d="m196.2519 69.37932l-1.09375 0l0 -6.968754q-0.40625 0.375 -1.046875 0.75q-0.640625 0.375 -1.140625 0.578125l0 -1.0625q0.90625 -0.4375 1.59375 -1.046875q0.6875 -0.609375 0.96875 -1.1875l0.71875 0l0 8.937504z" fill-rule="nonzero"/><path fill="#000000" fill-opacity="0.0" d="m156.75853 107.997375l63.149612 0l0 39.779526l-63.149612 0z" fill-rule="evenodd"/><path fill="#000000" d="m181.15396 134.91737l-2.96875 -9.671875l1.703125 0l1.53125 5.578125l0.578125 2.078125q0.046875 -0.15625 0.5 -2.0l1.546875 -5.65625l1.6875 0l1.4375 5.609375l0.484375 1.84375l0.5625 -1.859375l1.65625 -5.59375l1.59375 0l-3.03125 9.671875l-1.703125 0l-1.53125 -5.796875l-0.375 -1.640625l-1.953125 7.4375l-1.71875 0z" fill-rule="nonzero"/><path fill="#000000" d="m197.8769 140.8705l0 1.046875l-5.890625 0q-0.015625 -0.390625 0.125 -0.765625q0.234375 -0.59375 0.71875 -1.171875q0.5 -0.59375 1.4375 -1.359375q1.453125 -1.1875 1.953125 -1.875q0.515625 -0.703125 0.515625 -1.3125q0 -0.65625 -0.46875 -1.09375q-0.453125 -0.453125 -1.203125 -0.453125q-0.796875 0 -1.265625 0.46875q-0.46875 0.46875 -0.484375 1.3125l-1.125 -0.109375q0.125 -1.265625 0.875 -1.921875q0.75 -0.65625 2.015625 -0.65625q1.28125 0 2.03125 0.71875q0.75 0.703125 0.75 1.75q0 0.53125 -0.21875 1.046875q-0.21875 0.515625 -0.734375 1.09375q-0.5 0.5625 -1.671875 1.5625q-0.984375 0.828125 -1.265625 1.125q-0.28125 0.296875 -0.46875 0.59375l4.375 0z" fill-rule="nonzero"/><path fill="#000000" fill-opacity="0.0" d="m148.11285 306.58267l80.44095 0l0 30.48819l-80.44095 0z" fill-rule="evenodd"/><path fill="#000000" d="m181.15396 333.5027l-2.96875 -9.671875l1.703125 0l1.53125 5.578125l0.578125 2.078125q0.046875 -0.15625 0.5 -2.0l1.546875 -5.65625l1.6875 0l1.4375 5.609375l0.484375 1.84375l0.5625 -1.859375l1.65625 -5.59375l1.59375 0l-3.03125 9.671875l-1.703125 0l-1.53125 -5.796875l-0.375 -1.640625l-1.953125 7.4375l-1.71875 0z" fill-rule="nonzero"/><path fill="#000000" d="m192.42378 340.5027l0 -6.453125l0.984375 0l0 0.921875q0.71875 -1.0625 2.0625 -1.0625q0.578125 0 1.0625 0.21875q0.5 0.203125 0.734375 0.546875q0.25 0.328125 0.34375 0.796875q0.0625 0.3125 0.0625 1.0625l0 3.96875l-1.09375 0l0 -3.921875q0 -0.671875 -0.125 -1.0q-0.125 -0.328125 -0.453125 -0.515625q-0.328125 -0.203125 -0.765625 -0.203125q-0.703125 0 -1.21875 0.4375q-0.5 0.4375 -0.5 1.6875l0 3.515625l-1.09375 0z" fill-rule="nonzero"/><path fill="#000000" fill-opacity="0.0" d="m257.84515 352.6509c0 5.905548 -9.028427 10.692932 -20.165558 10.692932l-29.18071 0c-11.137131 0 -20.165558 4.787384 -20.165558 10.692902l0 0c0 -5.9055176 -9.028427 -10.692902 -20.165543 -10.692902l-29.18071 0l0 0c-11.137131 0 -20.16555 -4.787384 -20.16555 -10.692932z" fill-rule="evenodd"/><path fill="#000000" fill-opacity="0.0" d="m257.84515 352.6509c0 5.905548 -9.028427 10.692932 -20.165558 10.692932l-29.18071 0c-11.137131 0 -20.165558 4.787384 -20.165558 10.692902l0 0c0 -5.9055176 -9.028427 -10.692902 -20.165543 -10.692902l-29.18071 0l0 0c-11.137131 0 -20.16555 -4.787384 -20.16555 -10.692932" fill-rule="evenodd"/><path stroke="#000000" stroke-width="1.0" stroke-linejoin="round" stroke-linecap="butt" d="m257.84515 352.6509c0 5.905548 -9.028427 10.692932 -20.165558 10.692932l-29.18071 0c-11.137131 0 -20.165558 4.787384 -20.165558 10.692902l0 0c0 -5.9055176 -9.028427 -10.692902 -20.165543 -10.692902l-29.18071 0l0 0c-11.137131 0 -20.16555 -4.787384 -20.16555 -10.692932" fill-rule="evenodd"/><path fill="#000000" fill-opacity="0.0" d="m138.17586 375.33334l100.31496 0l0 39.77951l-100.31496 0z" fill-rule="evenodd"/><path fill="#000000" d="m157.94864 402.25333l0 -9.671875l1.46875 0l0 1.359375q0.453125 -0.71875 1.203125 -1.140625q0.765625 -0.4375 1.71875 -0.4375q1.078125 0 1.765625 0.453125q0.6875 0.4375 0.96875 1.234375q1.15625 -1.6875 2.984375 -1.6875q1.453125 0 2.21875 0.796875q0.78125 0.796875 0.78125 2.453125l0 6.640625l-1.640625 0l0 -6.09375q0 -0.984375 -0.15625 -1.40625q-0.15625 -0.4375 -0.578125 -0.703125q-0.421875 -0.265625 -0.984375 -0.265625q-1.015625 0 -1.6875 0.6875q-0.671875 0.671875 -0.671875 2.15625l0 5.625l-1.640625 0l0 -6.28125q0 -1.09375 -0.40625 -1.640625q-0.40625 -0.546875 -1.3125 -0.546875q-0.6875 0 -1.28125 0.359375q-0.59375 0.359375 -0.859375 1.0625q-0.25 0.703125 -0.25 2.03125l0 5.015625l-1.640625 0zm21.868927 0l0 -1.421875q-1.125 1.640625 -3.0625 1.640625q-0.859375 0 -1.609375 -0.328125q-0.734375 -0.328125 -1.09375 -0.828125q-0.359375 -0.5 -0.5 -1.21875q-0.109375 -0.46875 -0.109375 -1.53125l0 -5.984375l1.640625 0l0 5.359375q0 1.28125 0.109375 1.734375q0.15625 0.640625 0.65625 1.015625q0.5 0.375 1.234375 0.375q0.734375 0 1.375 -0.375q0.65625 -0.390625 0.921875 -1.03125q0.265625 -0.65625 0.265625 -1.890625l0 -5.1875l1.640625 0l0 9.671875l-1.46875 0zm4.000717 0l0 -13.359375l1.640625 0l0 13.359375l-1.640625 0zm7.769821 -1.46875l0.234375 1.453125q-0.6875 0.140625 -1.234375 0.140625q-0.890625 0 -1.390625 -0.28125q-0.484375 -0.28125 -0.6875 -0.734375q-0.203125 -0.46875 -0.203125 -1.9375l0 -5.578125l-1.203125 0l0 -1.265625l1.203125 0l0 -2.390625l1.625 -0.984375l0 3.375l1.65625 0l0 1.265625l-1.65625 0l0 5.671875q0 0.6875 0.078125 0.890625q0.09375 0.203125 0.28125 0.328125q0.203125 0.109375 0.578125 0.109375q0.265625 0 0.71875 -0.0625zm1.6051788 -10.0l0 -1.890625l1.640625 0l0 1.890625l-1.640625 0zm0 11.46875l0 -9.671875l1.640625 0l0 9.671875l-1.640625 0zm4.144821 3.703125l0 -13.375l1.484375 0l0 1.25q0.53125 -0.734375 1.1875 -1.09375q0.671875 -0.375 1.625 -0.375q1.2343903 0 2.1718903 0.640625q0.953125 0.625 1.4375 1.796875q0.484375 1.15625 0.484375 2.546875q0 1.484375 -0.53125 2.671875q-0.53125 1.1875 -1.546875 1.828125q-1.015625 0.625 -2.1406403 0.625q-0.8125 0 -1.46875 -0.34375q-0.65625 -0.34375 -1.0625 -0.875l0 4.703125l-1.640625 0zm1.484375 -8.484375q0 1.859375 0.75 2.765625q0.765625 0.890625 1.828125 0.890625q1.0937653 0 1.8750153 -0.921875q0.78125 -0.9375 0.78125 -2.875q0 -1.84375 -0.765625 -2.765625q-0.75 -0.921875 -1.8125153 -0.921875q-1.046875 0 -1.859375 0.984375q-0.796875 0.96875 -0.796875 2.84375zm8.844482 4.78125l0 -13.359375l1.640625 0l0 13.359375l-1.640625 0zm4.113571 3.71875l-0.1875 -1.53125q0.546875 0.140625 0.9375 0.140625q0.546875 0 0.875 -0.1875q0.328125 -0.171875 0.546875 -0.5q0.15625 -0.25 0.5 -1.21875q0.046875 -0.140625 0.140625 -0.40625l-3.671875 -9.6875l1.765625 0l2.015625 5.59375q0.390625 1.078125 0.703125 2.25q0.28125 -1.125 0.671875 -2.203125l2.078125 -5.640625l1.640625 0l-3.6875 9.828125q-0.59375 1.609375 -0.921875 2.203125q-0.4375 0.8125 -1.0 1.1875q-0.5625 0.375 -1.34375 0.375q-0.484375 0 -1.0625 -0.203125z" fill-rule="nonzero"/><path fill="#f4cccc" d="m465.49213 130.36613l0 0c0 -4.5776367E-4 3.6621094E-4 -8.239746E-4 8.239746E-4 -8.239746E-4l100.31412 8.239746E-4c2.4414062E-4 0 4.272461E-4 9.1552734E-5 6.1035156E-4 2.593994E-4c1.8310547E-4 1.5258789E-4 2.4414062E-4 3.6621094E-4 2.4414062E-4 5.79834E-4l-8.544922E-4 100.31413c0 4.5776367E-4 -3.6621094E-4 8.392334E-4 -7.9345703E-4 8.392334E-4l-100.31415 -8.392334E-4l0 0c-4.5776367E-4 0 -8.239746E-4 -3.8146973E-4 -8.239746E-4 -8.392334E-4z" fill-rule="evenodd"/><path stroke="#000000" stroke-width="1.0" stroke-linejoin="round" stroke-linecap="butt" d="m465.49213 130.36613l0 0c0 -4.5776367E-4 3.6621094E-4 -8.239746E-4 8.239746E-4 -8.239746E-4l100.31412 8.239746E-4c2.4414062E-4 0 4.272461E-4 9.1552734E-5 6.1035156E-4 2.593994E-4c1.8310547E-4 1.5258789E-4 2.4414062E-4 3.6621094E-4 2.4414062E-4 5.79834E-4l-8.544922E-4 100.31413c0 4.5776367E-4 -3.6621094E-4 8.392334E-4 -7.9345703E-4 8.392334E-4l-100.31415 -8.392334E-4l0 0c-4.5776367E-4 0 -8.239746E-4 -3.8146973E-4 -8.239746E-4 -8.392334E-4z" fill-rule="evenodd"/><path fill="#000000" d="m512.3215 203.46362l0 -28.8125l-4.96875 0l0 -4.375l4.96875 0l0 -3.53125q0 -3.34375 0.59375 -4.96875q0.8125 -2.1875 2.859375 -3.546875q2.046875 -1.359375 5.734375 -1.359375q2.375 0 5.25 0.5625l-0.84375 4.90625q-1.75 -0.3125 -3.3125 -0.3125q-2.5625 0 -3.625 1.09375q-1.0625 1.09375 -1.0625 4.09375l0 3.0625l6.46875 0l0 4.375l-6.46875 0l0 28.8125l-5.59375 0z" fill-rule="nonzero"/><path fill="#000000" fill-opacity="0.0" d="m366.26248 180.52362l99.24408 0" fill-rule="evenodd"/><path stroke="#000000" stroke-width="2.0" stroke-linejoin="round" stroke-linecap="butt" d="m366.26248 180.52362l87.24408 0" fill-rule="evenodd"/><path fill="#000000" stroke="#000000" stroke-width="2.0" stroke-linecap="butt" d="m453.50656 183.82709l9.076202 -3.3034668l-9.076202 -3.3034668z" fill-rule="evenodd"/><path fill="#000000" fill-opacity="0.0" d="m280.2152 56.782154l71.77954 0l0 36.787403l-71.77954 0z" fill-rule="evenodd"/><path fill="#000000" d="m299.0608 80.81152l1.625 -0.25q0.125 0.96875 0.75 1.5q0.625 0.515625 1.75 0.515625q1.125 0 1.671875 -0.453125q0.546875 -0.46875 0.546875 -1.09375q0 -0.546875 -0.484375 -0.875q-0.328125 -0.21875 -1.671875 -0.546875q-1.8125 -0.46875 -2.515625 -0.796875q-0.6875 -0.328125 -1.046875 -0.90625q-0.359375 -0.59375 -0.359375 -1.3125q0 -0.640625 0.296875 -1.1875q0.296875 -0.5625 0.8125 -0.921875q0.375 -0.28125 1.03125 -0.46875q0.671875 -0.203125 1.421875 -0.203125q1.140625 0 2.0 0.328125q0.859375 0.328125 1.265625 0.890625q0.421875 0.5625 0.578125 1.5l-1.609375 0.21875q-0.109375 -0.75 -0.640625 -1.171875q-0.515625 -0.421875 -1.46875 -0.421875q-1.140625 0 -1.625 0.375q-0.46875 0.375 -0.46875 0.875q0 0.3125 0.1875 0.578125q0.203125 0.265625 0.640625 0.4375q0.234375 0.09375 1.4375 0.421875q1.75 0.453125 2.4375 0.75q0.6875 0.296875 1.078125 0.859375q0.390625 0.5625 0.390625 1.40625q0 0.828125 -0.484375 1.546875q-0.46875 0.71875 -1.375 1.125q-0.90625 0.390625 -2.046875 0.390625q-1.875 0 -2.875 -0.78125q-0.984375 -0.78125 -1.25 -2.328125zm16.3125 2.890625l0 -1.421875q-1.125 1.640625 -3.0625 1.640625q-0.859375 0 -1.609375 -0.328125q-0.734375 -0.328125 -1.09375 -0.828125q-0.359375 -0.5 -0.5 -1.21875q-0.109375 -0.46875 -0.109375 -1.53125l0 -5.984375l1.640625 0l0 5.359375q0 1.28125 0.109375 1.734375q0.15625 0.640625 0.65625 1.015625q0.5 0.375 1.234375 0.375q0.734375 0 1.375 -0.375q0.65625 -0.390625 0.921875 -1.03125q0.265625 -0.65625 0.265625 -1.890625l0 -5.1875l1.640625 0l0 9.671875l-1.46875 0zm4.047577 0l0 -9.671875l1.46875 0l0 1.359375q0.453125 -0.71875 1.203125 -1.140625q0.765625 -0.4375 1.71875 -0.4375q1.078125 0 1.765625 0.453125q0.6875 0.4375 0.96875 1.234375q1.15625 -1.6875 2.984375 -1.6875q1.453125 0 2.21875 0.796875q0.78125 0.796875 0.78125 2.453125l0 6.640625l-1.640625 0l0 -6.09375q0 -0.984375 -0.15625 -1.40625q-0.15625 -0.4375 -0.578125 -0.703125q-0.421875 -0.265625 -0.984375 -0.265625q-1.015625 0 -1.6875 0.6875q-0.671875 0.671875 -0.671875 2.15625l0 5.625l-1.640625 0l0 -6.28125q0 -1.09375 -0.40625 -1.640625q-0.40625 -0.546875 -1.3125 -0.546875q-0.6875 0 -1.28125 0.359375q-0.59375 0.359375 -0.859375 1.0625q-0.25 0.703125 -0.25 2.03125l0 5.015625l-1.640625 0z" fill-rule="nonzero"/><path fill="#000000" fill-opacity="0.0" d="m316.10498 93.56956l0 36.78739" fill-rule="evenodd"/><path stroke="#000000" stroke-width="1.0" stroke-linejoin="round" stroke-linecap="butt" d="m316.10498 93.56956l0 36.78739" fill-rule="evenodd"/><path fill="#000000" fill-opacity="0.0" d="m459.96457 56.782154l111.37009 0l0 36.787403l-111.37009 0z" fill-rule="evenodd"/><path fill="#000000" d="m483.7888 82.51465q-0.921875 0.765625 -1.765625 1.09375q-0.828125 0.3125 -1.796875 0.3125q-1.59375 0 -2.453125 -0.78125q-0.859375 -0.78125 -0.859375 -1.984375q0 -0.71875 0.328125 -1.296875q0.328125 -0.59375 0.84375 -0.9375q0.53125 -0.359375 1.1875 -0.546875q0.46875 -0.125 1.453125 -0.25q1.984375 -0.234375 2.921875 -0.5625q0.015625 -0.34375 0.015625 -0.421875q0 -1.0 -0.46875 -1.421875q-0.625 -0.546875 -1.875 -0.546875q-1.15625 0 -1.703125 0.40625q-0.546875 0.40625 -0.8125 1.421875l-1.609375 -0.21875q0.21875 -1.015625 0.71875 -1.640625q0.5 -0.640625 1.453125 -0.984375q0.953125 -0.34375 2.1875 -0.34375q1.25 0 2.015625 0.296875q0.78125 0.28125 1.140625 0.734375q0.375 0.4375 0.515625 1.109375q0.078125 0.421875 0.078125 1.515625l0 2.1875q0 2.28125 0.109375 2.890625q0.109375 0.59375 0.40625 1.15625l-1.703125 0q-0.265625 -0.515625 -0.328125 -1.1875zm-0.140625 -3.671875q-0.890625 0.375 -2.671875 0.625q-1.015625 0.140625 -1.4375 0.328125q-0.421875 0.1875 -0.65625 0.53125q-0.21875 0.34375 -0.21875 0.78125q0 0.65625 0.5 1.09375q0.5 0.4375 1.453125 0.4375q0.9375 0 1.671875 -0.40625q0.75 -0.421875 1.09375 -1.140625q0.265625 -0.5625 0.265625 -1.640625l0 -0.609375zm10.516357 1.3125l1.609375 0.21875q-0.265625 1.65625 -1.359375 2.609375q-1.078125 0.9375 -2.671875 0.9375q-1.984375 0 -3.1875 -1.296875q-1.203125 -1.296875 -1.203125 -3.71875q0 -1.578125 0.515625 -2.75q0.515625 -1.171875 1.578125 -1.75q1.0625 -0.59375 2.3125 -0.59375q1.578125 0 2.578125 0.796875q1.0 0.796875 1.28125 2.265625l-1.59375 0.234375q-0.234375 -0.96875 -0.8125 -1.453125q-0.578125 -0.5 -1.390625 -0.5q-1.234375 0 -2.015625 0.890625q-0.78125 0.890625 -0.78125 2.8125q0 1.953125 0.75 2.84375q0.75 0.875 1.953125 0.875q0.96875 0 1.609375 -0.59375q0.65625 -0.59375 0.828125 -1.828125zm6.59375 2.078125l0.234375 1.453125q-0.6875 0.140625 -1.234375 0.140625q-0.890625 0 -1.390625 -0.28125q-0.484375 -0.28125 -0.6875 -0.734375q-0.203125 -0.46875 -0.203125 -1.9375l0 -5.578125l-1.203125 0l0 -1.265625l1.203125 0l0 -2.390625l1.625 -0.984375l0 3.375l1.65625 0l0 1.265625l-1.65625 0l0 5.671875q0 0.6875 0.078125 0.890625q0.09375 0.203125 0.28125 0.328125q0.203125 0.109375 0.578125 0.109375q0.265625 0 0.71875 -0.0625zm1.6051636 -10.0l0 -1.890625l1.640625 0l0 1.890625l-1.640625 0zm0 11.46875l0 -9.671875l1.640625 0l0 9.671875l-1.640625 0zm6.8323364 0l-3.6875 -9.671875l1.734375 0l2.078125 5.796875q0.328125 0.9375 0.625 1.9375q0.203125 -0.765625 0.609375 -1.828125l2.1405945 -5.90625l1.6875 0l-3.6562195 9.671875l-1.53125 0zm12.9530945 -1.1875q-0.921875 0.765625 -1.765625 1.09375q-0.828125 0.3125 -1.796875 0.3125q-1.59375 0 -2.453125 -0.78125q-0.859375 -0.78125 -0.859375 -1.984375q0 -0.71875 0.328125 -1.296875q0.328125 -0.59375 0.84375 -0.9375q0.53125 -0.359375 1.1875 -0.546875q0.46875 -0.125 1.453125 -0.25q1.984375 -0.234375 2.921875 -0.5625q0.015625 -0.34375 0.015625 -0.421875q0 -1.0 -0.46875 -1.421875q-0.625 -0.546875 -1.875 -0.546875q-1.15625 0 -1.703125 0.40625q-0.546875 0.40625 -0.8125 1.421875l-1.609375 -0.21875q0.21875 -1.015625 0.71875 -1.640625q0.5 -0.640625 1.453125 -0.984375q0.953125 -0.34375 2.1875 -0.34375q1.25 0 2.015625 0.296875q0.78125 0.28125 1.140625 0.734375q0.375 0.4375 0.515625 1.109375q0.078125 0.421875 0.078125 1.515625l0 2.1875q0 2.28125 0.109375 2.890625q0.109375 0.59375 0.40625 1.15625l-1.703125 0q-0.265625 -0.515625 -0.328125 -1.1875zm-0.140625 -3.671875q-0.890625 0.375 -2.671875 0.625q-1.015625 0.140625 -1.4375 0.328125q-0.421875 0.1875 -0.65625 0.53125q-0.21875 0.34375 -0.21875 0.78125q0 0.65625 0.5 1.09375q0.5 0.4375 1.453125 0.4375q0.9375 0 1.671875 -0.40625q0.75 -0.421875 1.09375 -1.140625q0.265625 -0.5625 0.265625 -1.640625l0 -0.609375zm7.7819824 3.390625l0.234375 1.453125q-0.6875 0.140625 -1.234375 0.140625q-0.890625 0 -1.390625 -0.28125q-0.484375 -0.28125 -0.6875 -0.734375q-0.203125 -0.46875 -0.203125 -1.9375l0 -5.578125l-1.203125 0l0 -1.265625l1.203125 0l0 -2.390625l1.625 -0.984375l0 3.375l1.65625 0l0 1.265625l-1.65625 0l0 5.671875q0 0.6875 0.078125 0.890625q0.09375 0.203125 0.28125 0.328125q0.203125 0.109375 0.578125 0.109375q0.265625 0 0.71875 -0.0625zm1.6051636 -10.0l0 -1.890625l1.640625 0l0 1.890625l-1.640625 0zm0 11.46875l0 -9.671875l1.640625 0l0 9.671875l-1.640625 0zm3.5354614 -4.84375q0 -2.6875 1.484375 -3.96875q1.25 -1.078125 3.046875 -1.078125q2.0 0 3.265625 1.3125q1.265625 1.296875 1.265625 3.609375q0 1.859375 -0.5625 2.9375q-0.5625 1.0625 -1.640625 1.65625q-1.0625 0.59375 -2.328125 0.59375q-2.03125 0 -3.28125 -1.296875q-1.25 -1.3125 -1.25 -3.765625zm1.6875 0q0 1.859375 0.796875 2.796875q0.8125 0.921875 2.046875 0.921875q1.21875 0 2.03125 -0.921875q0.8125 -0.9375 0.8125 -2.84375q0 -1.796875 -0.8125 -2.71875q-0.8125 -0.921875 -2.03125 -0.921875q-1.234375 0 -2.046875 0.921875q-0.796875 0.90625 -0.796875 2.765625zm9.297607 4.84375l0 -9.671875l1.46875 0l0 1.375q1.0625 -1.59375 3.078125 -1.59375q0.875 0 1.609375 0.3125q0.734375 0.3125 1.09375 0.828125q0.375 0.5 0.515625 1.203125q0.09375 0.453125 0.09375 1.59375l0 5.953125l-1.640625 0l0 -5.890625q0 -1.0 -0.203125 -1.484375q-0.1875 -0.5 -0.671875 -0.796875q-0.484375 -0.296875 -1.140625 -0.296875q-1.046875 0 -1.8125 0.671875q-0.75 0.65625 -0.75 2.515625l0 5.28125l-1.640625 0z" fill-rule="nonzero"/><path fill="#000000" fill-opacity="0.0" d="m515.6496 93.56956l0 36.78739" fill-rule="evenodd"/><path stroke="#000000" stroke-width="1.0" stroke-linejoin="round" stroke-linecap="butt" d="m515.6496 93.56956l0 36.78739" fill-rule="evenodd"/><path fill="#000000" fill-opacity="0.0" d="m565.80707 180.52362l81.322876 0" fill-rule="evenodd"/><path stroke="#000000" stroke-width="2.0" stroke-linejoin="round" stroke-linecap="butt" d="m565.80707 180.52362l69.322876 0" fill-rule="evenodd"/><path fill="#000000" stroke="#000000" stroke-width="2.0" stroke-linecap="butt" d="m635.12994 183.82709l9.076172 -3.3034668l-9.076172 -3.3034668z" fill-rule="evenodd"/><path fill="#000000" fill-opacity="0.0" d="m647.13385 162.12862l63.149597 0l0 36.7874l-63.149597 0z" fill-rule="evenodd"/><path fill="#000000" d="m657.2901 191.16106l-0.1875 -1.53125q0.546875 0.140625 0.9375 0.140625q0.546875 0 0.875 -0.1875q0.328125 -0.171875 0.546875 -0.5q0.15625 -0.25 0.5 -1.21875q0.046875 -0.140625 0.140625 -0.40625l-3.671875 -9.6875l1.765625 0l2.015625 5.59375q0.390625 1.078125 0.703125 2.25q0.28125 -1.125 0.671875 -2.203125l2.078125 -5.640625l1.640625 0l-3.6875 9.828125q-0.59375 1.609375 -0.921875 2.203125q-0.4375 0.8125 -1.0 1.1875q-0.5625 0.375 -1.34375 0.375q-0.484375 0 -1.0625 -0.203125z" fill-rule="nonzero"/><path fill="#000000" fill-opacity="0.0" d="m389.62204 158.27034l30.26773 0l0 12.976379l-30.26773 0z" fill-rule="evenodd"/><path fill="#000000" fill-opacity="0.0" d="m391.13385 146.12862l63.149628 0l0 36.7874l-63.149628 0z" fill-rule="evenodd"/><path fill="#000000" d="m400.49323 173.04861l0 -1.328125l6.15625 -7.078125q-1.046875 0.0625 -1.84375 0.0625l-3.9375 0l0 -1.328125l7.90625 0l0 1.078125l-5.25 6.140625l-1.0 1.125q1.09375 -0.078125 2.0625 -0.078125l4.46875 0l0 1.40625l-8.5625 0z" fill-rule="nonzero"/></g></svg>